#!OML:ASF E:\motion texture\Top Level 1\Subject 1\Session 1\male.ASF
:FULLY-SPECIFIED
:DEGREES
605
root -34.8103 17.9531 0.633074 163.267 -67.1446 -151.153
lowerback -2.56287 2.23124 11.1041
upperback -4.15373 2.70444 3.468
thorax -2.55905 0.976823 -2.56131
lowerneck -12.9992 -10.5628 -13.0773
upperneck 11.6894 -13.1211 8.40142
head 7.12356 -6.29398 3.35352
rclavicle -4.2397e-014 6.95746e-014
rhumerus -9.39913 7.9859 -78.2486
rradius 70.7803
rwrist 15.7553
rhand -21.1358 -24.0047
rfingers 7.12502
rthumb 5.24325 306.08
lclavicle -4.2397e-014 6.95746e-014
lhumerus -38.3415 0.796468 89.1678
lradius 64.9783
lwrist -13.2119
lhand -15.2847 20.279
lfingers 7.12502
lthumb 10.8901 49.9766
rfemur -2.46574 -0.512338 33.9577
rtibia 17.1199
rfoot -13.7391 -6.36415
rtoes 2.54248
lfemur -32.3609 3.44329 -5.02724
ltibia 17.7511
lfoot -3.19251 12.3107
ltoes -10.1796
606
root -34.9541 17.9406 0.602154 163.308 -67.2114 -151.21
lowerback -2.63757 2.22412 11.0106
upperback -4.17379 2.68816 3.415
thorax -2.5407 0.972005 -2.56351
lowerneck -13.0262 -10.5719 -13.0846
upperneck 11.6634 -13.1351 8.45433
head 7.12558 -6.29619 3.3688
rclavicle -5.82998e-014 2.46493e-014
rhumerus -9.45699 8.19954 -78.2266
rradius 71.8628
rwrist 16.1116
rhand -21.1621 -23.7931
rfingers 7.12502
rthumb 5.21782 306.291
lclavicle -5.82998e-014 2.46493e-014
lhumerus -38.1443 0.403415 89.5306
lradius 65.4464
lwrist -13.0736
lhand -15.4145 20.4591
lfingers 7.12502
lthumb 10.7649 50.1632
rfemur -2.45315 -0.592227 33.7609
rtibia 17.9586
rfoot -13.6316 -6.23118
rtoes 1.81792
lfemur -32.2756 3.12556 -5.15671
ltibia 17.3272
lfoot -2.97294 12.3055
ltoes -9.69157
607
root -35.0991 17.9284 0.571668 163.373 -67.2834 -151.311
lowerback -2.70126 2.2098 10.896
upperback -4.18693 2.66427 3.36201
thorax -2.52287 0.964458 -2.55458
lowerneck -13.0533 -10.5784 -13.0893
upperneck 11.6345 -13.1457 8.50695
head 7.12611 -6.29671 3.38412
rclavicle -4.29499e-014 -4.55217e-014
rhumerus -9.51263 8.40546 -78.2047
rradius 72.9083
rwrist 16.4774
rhand -21.1968 -23.5859
rfingers 7.12502
rthumb 5.18431 306.498
lclavicle -4.29499e-014 -4.55217e-014
lhumerus -37.9221 -0.0186226 89.8978
lradius 65.8936
lwrist -12.9384
lhand -15.5452 20.6495
lfingers 7.12502
lthumb 10.6389 50.3602
rfemur -2.47471 -0.671799 33.5375
rtibia 18.8736
rfoot -13.4646 -6.10212
rtoes 1.06279
lfemur -32.1701 2.82608 -5.32484
ltibia 17.003
lfoot -2.7632 12.2699
ltoes -9.18014
608
root -35.2454 17.9165 0.541677 163.459 -67.3615 -151.454
lowerback -2.75521 2.18845 10.7623
upperback -4.19367 2.6328 3.30898
thorax -2.50527 0.954097 -2.53574
lowerneck -13.0774 -10.5821 -13.0927
upperneck 11.6019 -13.1529 8.55968
head 7.12451 -6.29565 3.39994
rclavicle -3.17357e-014 -1.78906e-015
rhumerus -9.56683 8.60514 -78.1815
rradius 73.9174
rwrist 16.8516
rhand -21.2424 -23.3848
rfingers 7.12502
rthumb 5.14026 306.698
lclavicle -3.17357e-014 -1.78906e-015
lhumerus -37.6756 -0.472089 90.2702
lradius 66.3205
lwrist -12.8028
lhand -15.6782 20.8504
lfingers 7.12502
lthumb 10.5106 50.5676
rfemur -2.53277 -0.754212 33.2884
rtibia 19.8671
rfoot -13.2397 -5.98191
rtoes 0.294804
lfemur -32.0449 2.54821 -5.53367
ltibia 16.7764
lfoot -2.56275 12.199
ltoes -8.64885
609
root -35.3929 17.905 0.512195 163.574 -67.4463 -151.645
lowerback -2.80017 2.15958 10.6072
upperback -4.19383 2.59304 3.25487
thorax -2.48737 0.940672 -2.50666
lowerneck -13.1016 -10.583 -13.0926
upperneck 11.5679 -13.1566 8.61107
head 7.12171 -6.29287 3.41534
rclavicle 2.03483e-014 2.8625e-014
rhumerus -9.61639 8.7999 -78.1579
rradius 74.8893
rwrist 17.2344
rhand -21.3014 -23.1935
rfingers 7.12502
rthumb 5.0833 306.888
lclavicle 2.03483e-014 2.8625e-014
lhumerus -37.4027 -0.956459 90.6454
lradius 66.7267
lwrist -12.6672
lhand -15.8091 21.0615
lfingers 7.12502
lthumb 10.3843 50.7851
rfemur -2.63045 -0.838642 33.0105
rtibia 20.9393
rfoot -12.958 -5.87333
rtoes -0.47529
lfemur -31.8986 2.29245 -5.78679
ltibia 16.6408
lfoot -2.37859 12.0958
ltoes -8.08902
610
root -35.5415 17.8939 0.483225 163.714 -67.5372 -151.88
lowerback -2.83651 2.12348 10.4336
upperback -4.18773 2.54524 3.20044
thorax -2.46914 0.924161 -2.46813
lowerneck -13.1235 -10.5807 -13.0914
upperneck 11.5311 -13.1564 8.66311
head 7.11721 -6.28822 3.43147
rclavicle -5.78339e-015 -1.04163e-013
rhumerus -9.65779 8.98867 -78.1339
rradius 75.8214
rwrist 17.6268
rhand -21.373 -23.003
rfingers 7.12502
rthumb 5.01422 307.076
lclavicle -5.78339e-015 -1.04163e-013
lhumerus -37.1019 -1.47291 91.0232
lradius 67.1107
lwrist -12.5336
lhand -15.9395 21.2808
lfingers 7.12502
lthumb 10.2585 51.0106
rfemur -2.77139 -0.924451 32.7078
rtibia 22.0902
rfoot -12.6258 -5.77539
rtoes -1.24839
lfemur -31.7317 2.0618 -6.08093
ltibia 16.5924
lfoot -2.21152 11.9585
ltoes -7.5098
